<svg aria-roledescription="er" role="graphics-document document" viewBox="0 0 895.0120849609375 540" style="max-width: 895.012px; background-color: white;" xmlns:xlink="http://www.w3.org/1999/xlink" xmlns="http://www.w3.org/2000/svg" width="100%" id="my-svg"><style>#my-svg{font-family:"trebuchet ms",verdana,arial,sans-serif;font-size:16px;fill:#000000;}#my-svg .error-icon{fill:#552222;}#my-svg .error-text{fill:#552222;stroke:#552222;}#my-svg .edge-thickness-normal{stroke-width:2px;}#my-svg .edge-thickness-thick{stroke-width:3.5px;}#my-svg .edge-pattern-solid{stroke-dasharray:0;}#my-svg .edge-pattern-dashed{stroke-dasharray:3;}#my-svg .edge-pattern-dotted{stroke-dasharray:2;}#my-svg .marker{fill:#000000;stroke:#000000;}#my-svg .marker.cross{stroke:#000000;}#my-svg svg{font-family:"trebuchet ms",verdana,arial,sans-serif;font-size:16px;}#my-svg .entityBox{fill:#cde498;stroke:#13540c;}#my-svg .attributeBoxOdd{fill:#ffffff;stroke:#13540c;}#my-svg .attributeBoxEven{fill:#f2f2f2;stroke:#13540c;}#my-svg .relationshipLabelBox{fill:hsl(78.1578947368, 58.4615384615%, 84.5098039216%);opacity:0.7;background-color:hsl(78.1578947368, 58.4615384615%, 84.5098039216%);}#my-svg .relationshipLabelBox rect{opacity:0.5;}#my-svg .relationshipLine{stroke:#000000;}#my-svg .entityTitleText{text-anchor:middle;font-size:18px;fill:#000000;}#my-svg #MD_PARENT_START{fill:#f5f5f5!important;stroke:#000000!important;stroke-width:1;}#my-svg #MD_PARENT_END{fill:#f5f5f5!important;stroke:#000000!important;stroke-width:1;}#my-svg :root{--mermaid-font-family:"trebuchet ms",verdana,arial,sans-serif;}</style><g/><defs><marker orient="auto" markerHeight="240" markerWidth="190" refY="7" refX="0" id="MD_PARENT_START"><path d="M 18,7 L9,13 L1,7 L9,1 Z"/></marker></defs><defs><marker orient="auto" markerHeight="28" markerWidth="20" refY="7" refX="19" id="MD_PARENT_END"><path d="M 18,7 L9,13 L1,7 L9,1 Z"/></marker></defs><defs><marker orient="auto" markerHeight="18" markerWidth="18" refY="9" refX="0" id="ONLY_ONE_START"><path d="M9,0 L9,18 M15,0 L15,18" fill="none" stroke="gray"/></marker></defs><defs><marker orient="auto" markerHeight="18" markerWidth="18" refY="9" refX="18" id="ONLY_ONE_END"><path d="M3,0 L3,18 M9,0 L9,18" fill="none" stroke="gray"/></marker></defs><defs><marker orient="auto" markerHeight="18" markerWidth="30" refY="9" refX="0" id="ZERO_OR_ONE_START"><circle r="6" cy="9" cx="21" fill="white" stroke="gray"/><path d="M9,0 L9,18" fill="none" stroke="gray"/></marker></defs><defs><marker orient="auto" markerHeight="18" markerWidth="30" refY="9" refX="30" id="ZERO_OR_ONE_END"><circle r="6" cy="9" cx="9" fill="white" stroke="gray"/><path d="M21,0 L21,18" fill="none" stroke="gray"/></marker></defs><defs><marker orient="auto" markerHeight="36" markerWidth="45" refY="18" refX="18" id="ONE_OR_MORE_START"><path d="M0,18 Q 18,0 36,18 Q 18,36 0,18 M42,9 L42,27" fill="none" stroke="gray"/></marker></defs><defs><marker orient="auto" markerHeight="36" markerWidth="45" refY="18" refX="27" id="ONE_OR_MORE_END"><path d="M3,9 L3,27 M9,18 Q27,0 45,18 Q27,36 9,18" fill="none" stroke="gray"/></marker></defs><defs><marker orient="auto" markerHeight="36" markerWidth="57" refY="18" refX="18" id="ZERO_OR_MORE_START"><circle r="6" cy="18" cx="48" fill="white" stroke="gray"/><path d="M0,18 Q18,0 36,18 Q18,36 0,18" fill="none" stroke="gray"/></marker></defs><defs><marker orient="auto" markerHeight="36" markerWidth="57" refY="18" refX="39" id="ZERO_OR_MORE_END"><circle r="6" cy="18" cx="9" fill="white" stroke="gray"/><path d="M21,18 Q39,0 57,18 Q39,36 21,18" fill="none" stroke="gray"/></marker></defs><path style="stroke: gray; fill: none;" marker-start="url(#ZERO_OR_ONE_START)" marker-end="url(#ONLY_ONE_END)" d="M463.35692596435547,134.42101809282948L397.7974383036296,153.35084841069124C332.2379506429036,172.280678728553,201.1189753214518,210.1403393642765,135.55948766072592,248.40350301547156C70,286.6666666666667,70,325.3333333333333,70,344.6666666666667L70,364" class="er relationshipLine"/><path style="stroke: gray; fill: none;" marker-start="url(#ZERO_OR_ONE_START)" marker-end="url(#ONLY_ONE_END)" d="M463.35692596435547,159.46139467437334L437.611270904541,174.2178288953111C411.86561584472656,188.97426311624886,360.37430572509766,218.48713155812445,334.6286506652832,252.57689911239558C308.88299560546875,286.6666666666667,308.88299560546875,325.3333333333333,308.88299560546875,344.6666666666667L308.88299560546875,364" class="er relationshipLine"/><path style="stroke: gray; fill: none;" marker-start="url(#ZERO_OR_ONE_START)" marker-end="url(#ONLY_ONE_END)" d="M551.3972778320312,198L551.3972778320312,206.33333333333334C551.3972778320312,214.66666666666666,551.3972778320312,231.33333333333334,551.3972778320312,259C551.3972778320312,286.6666666666667,551.3972778320312,325.3333333333333,551.3972778320312,344.6666666666667L551.3972778320312,364" class="er relationshipLine"/><path style="stroke: gray; fill: none;" marker-start="url(#ZERO_OR_ONE_START)" marker-end="url(#ZERO_OR_ONE_END)" d="M639.437629699707,181.27865171506284L652.9828255971273,192.39887642921903C666.5280214945475,203.51910114337522,693.6184132893881,225.75955057168758,710.7511623572118,245.21310861917712C727.8839114250358,264.6666666666667,735.0590177658429,281.3333333333333,738.6465709362465,289.6666666666667L742.23412410665,298" class="er relationshipLine"/><path style="stroke: gray; fill: none;" marker-start="url(#ZERO_OR_MORE_START)" marker-end="url(#ZERO_OR_MORE_END)" d="M824.4923820258667,298L827.0803737442933,289.6666666666667C829.6683654627199,281.3333333333333,834.8443488995728,264.6666666666667,804.0018901785461,240.23332836642854C773.1594314575195,215.79999006619042,706.2985305786133,183.59998013238086,672.8680801391602,167.49997516547606L639.437629699707,151.39997019857125" class="er relationshipLine"/><g transform="translate(20,364 )" id="entity-Age-038f73d8-601c-5d30-8ee4-f53e61891abe"><rect height="90" width="100" y="0" x="0" class="er entityBox"/><text style="dominant-baseline: middle; text-anchor: middle; font-size: 12px;" transform="translate(50,12)" y="0" x="0" id="text-entity-Age-038f73d8-601c-5d30-8ee4-f53e61891abe" class="er entityLabel">Age</text><rect height="22" width="50" y="24" x="0" class="er attributeBoxOdd"/><text style="dominant-baseline: middle; font-size: 10.2px;" transform="translate(5,35)" y="0" x="0" id="text-entity-Age-038f73d8-601c-5d30-8ee4-f53e61891abe-attr-1-type" class="er entityLabel">FILHOTE</text><rect height="22" width="50" y="24" x="50" class="er attributeBoxOdd"/><text style="dominant-baseline: middle; font-size: 10.2px;" transform="translate(55,35)" y="0" x="0" id="text-entity-Age-038f73d8-601c-5d30-8ee4-f53e61891abe-attr-1-name" class="er entityLabel">FILHOTE</text><rect height="22" width="50" y="46" x="0" class="er attributeBoxEven"/><text style="dominant-baseline: middle; font-size: 10.2px;" transform="translate(5,57)" y="0" x="0" id="text-entity-Age-038f73d8-601c-5d30-8ee4-f53e61891abe-attr-2-type" class="er entityLabel">ADULTO</text><rect height="22" width="50" y="46" x="50" class="er attributeBoxEven"/><text style="dominant-baseline: middle; font-size: 10.2px;" transform="translate(55,57)" y="0" x="0" id="text-entity-Age-038f73d8-601c-5d30-8ee4-f53e61891abe-attr-2-name" class="er entityLabel">ADULTO</text><rect height="22" width="50" y="68" x="0" class="er attributeBoxOdd"/><text style="dominant-baseline: middle; font-size: 10.2px;" transform="translate(5,79)" y="0" x="0" id="text-entity-Age-038f73d8-601c-5d30-8ee4-f53e61891abe-attr-3-type" class="er entityLabel">SENIOR</text><rect height="22" width="50" y="68" x="50" class="er attributeBoxOdd"/><text style="dominant-baseline: middle; font-size: 10.2px;" transform="translate(55,79)" y="0" x="0" id="text-entity-Age-038f73d8-601c-5d30-8ee4-f53e61891abe-attr-3-name" class="er entityLabel">SENIOR</text></g><g transform="translate(220,364 )" id="entity-Termperament-a28c0d32-51b7-52e6-a73c-c37797141005"><rect height="90" width="177.7659912109375" y="0" x="0" class="er entityBox"/><text style="dominant-baseline: middle; text-anchor: middle; font-size: 12px;" transform="translate(88.88299560546875,12)" y="0" x="0" id="text-entity-Termperament-a28c0d32-51b7-52e6-a73c-c37797141005" class="er entityLabel">Termperament</text><rect height="22" width="88.88299560546875" y="24" x="0" class="er attributeBoxOdd"/><text style="dominant-baseline: middle; font-size: 10.2px;" transform="translate(5,35)" y="0" x="0" id="text-entity-Termperament-a28c0d32-51b7-52e6-a73c-c37797141005-attr-1-type" class="er entityLabel">CALMO</text><rect height="22" width="88.88299560546875" y="24" x="88.88299560546875" class="er attributeBoxOdd"/><text style="dominant-baseline: middle; font-size: 10.2px;" transform="translate(93.88299560546875,35)" y="0" x="0" id="text-entity-Termperament-a28c0d32-51b7-52e6-a73c-c37797141005-attr-1-name" class="er entityLabel">CALMO</text><rect height="22" width="88.88299560546875" y="46" x="0" class="er attributeBoxEven"/><text style="dominant-baseline: middle; font-size: 10.2px;" transform="translate(5,57)" y="0" x="0" id="text-entity-Termperament-a28c0d32-51b7-52e6-a73c-c37797141005-attr-2-type" class="er entityLabel">NEUTRO</text><rect height="22" width="88.88299560546875" y="46" x="88.88299560546875" class="er attributeBoxEven"/><text style="dominant-baseline: middle; font-size: 10.2px;" transform="translate(93.88299560546875,57)" y="0" x="0" id="text-entity-Termperament-a28c0d32-51b7-52e6-a73c-c37797141005-attr-2-name" class="er entityLabel">NEUTRO</text><rect height="22" width="88.88299560546875" y="68" x="0" class="er attributeBoxOdd"/><text style="dominant-baseline: middle; font-size: 10.2px;" transform="translate(5,79)" y="0" x="0" id="text-entity-Termperament-a28c0d32-51b7-52e6-a73c-c37797141005-attr-3-type" class="er entityLabel">TEMPERAMENTAL</text><rect height="22" width="88.88299560546875" y="68" x="88.88299560546875" class="er attributeBoxOdd"/><text style="dominant-baseline: middle; font-size: 10.2px;" transform="translate(93.88299560546875,79)" y="0" x="0" id="text-entity-Termperament-a28c0d32-51b7-52e6-a73c-c37797141005-attr-3-name" class="er entityLabel">TEMPERAMENTAL</text></g><g transform="translate(497.7659912109375,364 )" id="entity-Size-c0ba90fa-1efb-5f55-8fa3-b6fac4a7af2e"><rect height="90" width="107.2625732421875" y="0" x="0" class="er entityBox"/><text style="dominant-baseline: middle; text-anchor: middle; font-size: 12px;" transform="translate(53.63128662109375,12)" y="0" x="0" id="text-entity-Size-c0ba90fa-1efb-5f55-8fa3-b6fac4a7af2e" class="er entityLabel">Size</text><rect height="22" width="53.63128662109375" y="24" x="0" class="er attributeBoxOdd"/><text style="dominant-baseline: middle; font-size: 10.2px;" transform="translate(5,35)" y="0" x="0" id="text-entity-Size-c0ba90fa-1efb-5f55-8fa3-b6fac4a7af2e-attr-1-type" class="er entityLabel">PEQUENO</text><rect height="22" width="53.63128662109375" y="24" x="53.63128662109375" class="er attributeBoxOdd"/><text style="dominant-baseline: middle; font-size: 10.2px;" transform="translate(58.63128662109375,35)" y="0" x="0" id="text-entity-Size-c0ba90fa-1efb-5f55-8fa3-b6fac4a7af2e-attr-1-name" class="er entityLabel">PEQUENO</text><rect height="22" width="53.63128662109375" y="46" x="0" class="er attributeBoxEven"/><text style="dominant-baseline: middle; font-size: 10.2px;" transform="translate(5,57)" y="0" x="0" id="text-entity-Size-c0ba90fa-1efb-5f55-8fa3-b6fac4a7af2e-attr-2-type" class="er entityLabel">MEDIO</text><rect height="22" width="53.63128662109375" y="46" x="53.63128662109375" class="er attributeBoxEven"/><text style="dominant-baseline: middle; font-size: 10.2px;" transform="translate(58.63128662109375,57)" y="0" x="0" id="text-entity-Size-c0ba90fa-1efb-5f55-8fa3-b6fac4a7af2e-attr-2-name" class="er entityLabel">MEDIO</text><rect height="22" width="53.63128662109375" y="68" x="0" class="er attributeBoxOdd"/><text style="dominant-baseline: middle; font-size: 10.2px;" transform="translate(5,79)" y="0" x="0" id="text-entity-Size-c0ba90fa-1efb-5f55-8fa3-b6fac4a7af2e-attr-3-type" class="er entityLabel">GRANDE</text><rect height="22" width="53.63128662109375" y="68" x="53.63128662109375" class="er attributeBoxOdd"/><text style="dominant-baseline: middle; font-size: 10.2px;" transform="translate(58.63128662109375,79)" y="0" x="0" id="text-entity-Size-c0ba90fa-1efb-5f55-8fa3-b6fac4a7af2e-attr-3-name" class="er entityLabel">GRANDE</text></g><g transform="translate(463.35692596435547,20 )" id="entity-pets-c8ddf567-7858-5c2f-8d5c-09924015b056"><rect height="178" width="176.08070373535156" y="0" x="0" class="er entityBox"/><text style="dominant-baseline: middle; text-anchor: middle; font-size: 12px;" transform="translate(88.04035186767578,12)" y="0" x="0" id="text-entity-pets-c8ddf567-7858-5c2f-8d5c-09924015b056" class="er entityLabel">pets</text><rect height="22" width="78.81857299804688" y="24" x="0" class="er attributeBoxOdd"/><text style="dominant-baseline: middle; font-size: 10.2px;" transform="translate(5,35)" y="0" x="0" id="text-entity-pets-c8ddf567-7858-5c2f-8d5c-09924015b056-attr-1-type" class="er entityLabel">String</text><rect height="22" width="73.24650573730469" y="24" x="78.81857299804688" class="er attributeBoxOdd"/><text style="dominant-baseline: middle; font-size: 10.2px;" transform="translate(83.81857299804688,35)" y="0" x="0" id="text-entity-pets-c8ddf567-7858-5c2f-8d5c-09924015b056-attr-1-name" class="er entityLabel">id</text><rect height="22" width="24.015625" y="24" x="152.06507873535156" class="er attributeBoxOdd"/><text style="dominant-baseline: middle; font-size: 10.2px;" transform="translate(157.06507873535156,35)" y="0" x="0" id="text-entity-pets-c8ddf567-7858-5c2f-8d5c-09924015b056-attr-1-comment" class="er entityLabel">🗝️</text><rect height="22" width="78.81857299804688" y="46" x="0" class="er attributeBoxEven"/><text style="dominant-baseline: middle; font-size: 10.2px;" transform="translate(5,57)" y="0" x="0" id="text-entity-pets-c8ddf567-7858-5c2f-8d5c-09924015b056-attr-2-type" class="er entityLabel">String</text><rect height="22" width="73.24650573730469" y="46" x="78.81857299804688" class="er attributeBoxEven"/><text style="dominant-baseline: middle; font-size: 10.2px;" transform="translate(83.81857299804688,57)" y="0" x="0" id="text-entity-pets-c8ddf567-7858-5c2f-8d5c-09924015b056-attr-2-name" class="er entityLabel">name</text><rect height="22" width="24.015625" y="46" x="152.06507873535156" class="er attributeBoxEven"/><text style="dominant-baseline: middle; font-size: 10.2px;" transform="translate(157.06507873535156,57)" y="0" x="0" id="text-entity-pets-c8ddf567-7858-5c2f-8d5c-09924015b056-attr-2-comment" class="er entityLabel"/><rect height="22" width="78.81857299804688" y="68" x="0" class="er attributeBoxOdd"/><text style="dominant-baseline: middle; font-size: 10.2px;" transform="translate(5,79)" y="0" x="0" id="text-entity-pets-c8ddf567-7858-5c2f-8d5c-09924015b056-attr-3-type" class="er entityLabel">String</text><rect height="22" width="73.24650573730469" y="68" x="78.81857299804688" class="er attributeBoxOdd"/><text style="dominant-baseline: middle; font-size: 10.2px;" transform="translate(83.81857299804688,79)" y="0" x="0" id="text-entity-pets-c8ddf567-7858-5c2f-8d5c-09924015b056-attr-3-name" class="er entityLabel">description</text><rect height="22" width="24.015625" y="68" x="152.06507873535156" class="er attributeBoxOdd"/><text style="dominant-baseline: middle; font-size: 10.2px;" transform="translate(157.06507873535156,79)" y="0" x="0" id="text-entity-pets-c8ddf567-7858-5c2f-8d5c-09924015b056-attr-3-comment" class="er entityLabel">❓</text><rect height="22" width="78.81857299804688" y="90" x="0" class="er attributeBoxEven"/><text style="dominant-baseline: middle; font-size: 10.2px;" transform="translate(5,101)" y="0" x="0" id="text-entity-pets-c8ddf567-7858-5c2f-8d5c-09924015b056-attr-4-type" class="er entityLabel">Age</text><rect height="22" width="73.24650573730469" y="90" x="78.81857299804688" class="er attributeBoxEven"/><text style="dominant-baseline: middle; font-size: 10.2px;" transform="translate(83.81857299804688,101)" y="0" x="0" id="text-entity-pets-c8ddf567-7858-5c2f-8d5c-09924015b056-attr-4-name" class="er entityLabel">age</text><rect height="22" width="24.015625" y="90" x="152.06507873535156" class="er attributeBoxEven"/><text style="dominant-baseline: middle; font-size: 10.2px;" transform="translate(157.06507873535156,101)" y="0" x="0" id="text-entity-pets-c8ddf567-7858-5c2f-8d5c-09924015b056-attr-4-comment" class="er entityLabel"/><rect height="22" width="78.81857299804688" y="112" x="0" class="er attributeBoxOdd"/><text style="dominant-baseline: middle; font-size: 10.2px;" transform="translate(5,123)" y="0" x="0" id="text-entity-pets-c8ddf567-7858-5c2f-8d5c-09924015b056-attr-5-type" class="er entityLabel">Termperament</text><rect height="22" width="73.24650573730469" y="112" x="78.81857299804688" class="er attributeBoxOdd"/><text style="dominant-baseline: middle; font-size: 10.2px;" transform="translate(83.81857299804688,123)" y="0" x="0" id="text-entity-pets-c8ddf567-7858-5c2f-8d5c-09924015b056-attr-5-name" class="er entityLabel">temperament</text><rect height="22" width="24.015625" y="112" x="152.06507873535156" class="er attributeBoxOdd"/><text style="dominant-baseline: middle; font-size: 10.2px;" transform="translate(157.06507873535156,123)" y="0" x="0" id="text-entity-pets-c8ddf567-7858-5c2f-8d5c-09924015b056-attr-5-comment" class="er entityLabel"/><rect height="22" width="78.81857299804688" y="134" x="0" class="er attributeBoxEven"/><text style="dominant-baseline: middle; font-size: 10.2px;" transform="translate(5,145)" y="0" x="0" id="text-entity-pets-c8ddf567-7858-5c2f-8d5c-09924015b056-attr-6-type" class="er entityLabel">Size</text><rect height="22" width="73.24650573730469" y="134" x="78.81857299804688" class="er attributeBoxEven"/><text style="dominant-baseline: middle; font-size: 10.2px;" transform="translate(83.81857299804688,145)" y="0" x="0" id="text-entity-pets-c8ddf567-7858-5c2f-8d5c-09924015b056-attr-6-name" class="er entityLabel">size</text><rect height="22" width="24.015625" y="134" x="152.06507873535156" class="er attributeBoxEven"/><text style="dominant-baseline: middle; font-size: 10.2px;" transform="translate(157.06507873535156,145)" y="0" x="0" id="text-entity-pets-c8ddf567-7858-5c2f-8d5c-09924015b056-attr-6-comment" class="er entityLabel"/><rect height="22" width="78.81857299804688" y="156" x="0" class="er attributeBoxOdd"/><text style="dominant-baseline: middle; font-size: 10.2px;" transform="translate(5,167)" y="0" x="0" id="text-entity-pets-c8ddf567-7858-5c2f-8d5c-09924015b056-attr-7-type" class="er entityLabel">DateTime</text><rect height="22" width="73.24650573730469" y="156" x="78.81857299804688" class="er attributeBoxOdd"/><text style="dominant-baseline: middle; font-size: 10.2px;" transform="translate(83.81857299804688,167)" y="0" x="0" id="text-entity-pets-c8ddf567-7858-5c2f-8d5c-09924015b056-attr-7-name" class="er entityLabel">created_at</text><rect height="22" width="24.015625" y="156" x="152.06507873535156" class="er attributeBoxOdd"/><text style="dominant-baseline: middle; font-size: 10.2px;" transform="translate(157.06507873535156,167)" y="0" x="0" id="text-entity-pets-c8ddf567-7858-5c2f-8d5c-09924015b056-attr-7-comment" class="er entityLabel"/></g><g transform="translate(705.028564453125,298 )" id="entity-organizations-258d3fad-6db4-59dd-b3e6-44cc4246c92e"><rect height="222" width="169.98353576660156" y="0" x="0" class="er entityBox"/><text style="dominant-baseline: middle; text-anchor: middle; font-size: 12px;" transform="translate(84.99176788330078,12)" y="0" x="0" id="text-entity-organizations-258d3fad-6db4-59dd-b3e6-44cc4246c92e" class="er entityLabel">organizations</text><rect height="22" width="54.095550537109375" y="24" x="0" class="er attributeBoxOdd"/><text style="dominant-baseline: middle; font-size: 10.2px;" transform="translate(5,35)" y="0" x="0" id="text-entity-organizations-258d3fad-6db4-59dd-b3e6-44cc4246c92e-attr-1-type" class="er entityLabel">String</text><rect height="22" width="91.87236022949219" y="24" x="54.095550537109375" class="er attributeBoxOdd"/><text style="dominant-baseline: middle; font-size: 10.2px;" transform="translate(59.095550537109375,35)" y="0" x="0" id="text-entity-organizations-258d3fad-6db4-59dd-b3e6-44cc4246c92e-attr-1-name" class="er entityLabel">id</text><rect height="22" width="24.015625" y="24" x="145.96791076660156" class="er attributeBoxOdd"/><text style="dominant-baseline: middle; font-size: 10.2px;" transform="translate(150.96791076660156,35)" y="0" x="0" id="text-entity-organizations-258d3fad-6db4-59dd-b3e6-44cc4246c92e-attr-1-comment" class="er entityLabel">🗝️</text><rect height="22" width="54.095550537109375" y="46" x="0" class="er attributeBoxEven"/><text style="dominant-baseline: middle; font-size: 10.2px;" transform="translate(5,57)" y="0" x="0" id="text-entity-organizations-258d3fad-6db4-59dd-b3e6-44cc4246c92e-attr-2-type" class="er entityLabel">String</text><rect height="22" width="91.87236022949219" y="46" x="54.095550537109375" class="er attributeBoxEven"/><text style="dominant-baseline: middle; font-size: 10.2px;" transform="translate(59.095550537109375,57)" y="0" x="0" id="text-entity-organizations-258d3fad-6db4-59dd-b3e6-44cc4246c92e-attr-2-name" class="er entityLabel">name</text><rect height="22" width="24.015625" y="46" x="145.96791076660156" class="er attributeBoxEven"/><text style="dominant-baseline: middle; font-size: 10.2px;" transform="translate(150.96791076660156,57)" y="0" x="0" id="text-entity-organizations-258d3fad-6db4-59dd-b3e6-44cc4246c92e-attr-2-comment" class="er entityLabel"/><rect height="22" width="54.095550537109375" y="68" x="0" class="er attributeBoxOdd"/><text style="dominant-baseline: middle; font-size: 10.2px;" transform="translate(5,79)" y="0" x="0" id="text-entity-organizations-258d3fad-6db4-59dd-b3e6-44cc4246c92e-attr-3-type" class="er entityLabel">String</text><rect height="22" width="91.87236022949219" y="68" x="54.095550537109375" class="er attributeBoxOdd"/><text style="dominant-baseline: middle; font-size: 10.2px;" transform="translate(59.095550537109375,79)" y="0" x="0" id="text-entity-organizations-258d3fad-6db4-59dd-b3e6-44cc4246c92e-attr-3-name" class="er entityLabel">email</text><rect height="22" width="24.015625" y="68" x="145.96791076660156" class="er attributeBoxOdd"/><text style="dominant-baseline: middle; font-size: 10.2px;" transform="translate(150.96791076660156,79)" y="0" x="0" id="text-entity-organizations-258d3fad-6db4-59dd-b3e6-44cc4246c92e-attr-3-comment" class="er entityLabel"/><rect height="22" width="54.095550537109375" y="90" x="0" class="er attributeBoxEven"/><text style="dominant-baseline: middle; font-size: 10.2px;" transform="translate(5,101)" y="0" x="0" id="text-entity-organizations-258d3fad-6db4-59dd-b3e6-44cc4246c92e-attr-4-type" class="er entityLabel">String</text><rect height="22" width="91.87236022949219" y="90" x="54.095550537109375" class="er attributeBoxEven"/><text style="dominant-baseline: middle; font-size: 10.2px;" transform="translate(59.095550537109375,101)" y="0" x="0" id="text-entity-organizations-258d3fad-6db4-59dd-b3e6-44cc4246c92e-attr-4-name" class="er entityLabel">whatsAppNumber</text><rect height="22" width="24.015625" y="90" x="145.96791076660156" class="er attributeBoxEven"/><text style="dominant-baseline: middle; font-size: 10.2px;" transform="translate(150.96791076660156,101)" y="0" x="0" id="text-entity-organizations-258d3fad-6db4-59dd-b3e6-44cc4246c92e-attr-4-comment" class="er entityLabel"/><rect height="22" width="54.095550537109375" y="112" x="0" class="er attributeBoxOdd"/><text style="dominant-baseline: middle; font-size: 10.2px;" transform="translate(5,123)" y="0" x="0" id="text-entity-organizations-258d3fad-6db4-59dd-b3e6-44cc4246c92e-attr-5-type" class="er entityLabel">String</text><rect height="22" width="91.87236022949219" y="112" x="54.095550537109375" class="er attributeBoxOdd"/><text style="dominant-baseline: middle; font-size: 10.2px;" transform="translate(59.095550537109375,123)" y="0" x="0" id="text-entity-organizations-258d3fad-6db4-59dd-b3e6-44cc4246c92e-attr-5-name" class="er entityLabel">password_hash</text><rect height="22" width="24.015625" y="112" x="145.96791076660156" class="er attributeBoxOdd"/><text style="dominant-baseline: middle; font-size: 10.2px;" transform="translate(150.96791076660156,123)" y="0" x="0" id="text-entity-organizations-258d3fad-6db4-59dd-b3e6-44cc4246c92e-attr-5-comment" class="er entityLabel"/><rect height="22" width="54.095550537109375" y="134" x="0" class="er attributeBoxEven"/><text style="dominant-baseline: middle; font-size: 10.2px;" transform="translate(5,145)" y="0" x="0" id="text-entity-organizations-258d3fad-6db4-59dd-b3e6-44cc4246c92e-attr-6-type" class="er entityLabel">String</text><rect height="22" width="91.87236022949219" y="134" x="54.095550537109375" class="er attributeBoxEven"/><text style="dominant-baseline: middle; font-size: 10.2px;" transform="translate(59.095550537109375,145)" y="0" x="0" id="text-entity-organizations-258d3fad-6db4-59dd-b3e6-44cc4246c92e-attr-6-name" class="er entityLabel">city</text><rect height="22" width="24.015625" y="134" x="145.96791076660156" class="er attributeBoxEven"/><text style="dominant-baseline: middle; font-size: 10.2px;" transform="translate(150.96791076660156,145)" y="0" x="0" id="text-entity-organizations-258d3fad-6db4-59dd-b3e6-44cc4246c92e-attr-6-comment" class="er entityLabel"/><rect height="22" width="54.095550537109375" y="156" x="0" class="er attributeBoxOdd"/><text style="dominant-baseline: middle; font-size: 10.2px;" transform="translate(5,167)" y="0" x="0" id="text-entity-organizations-258d3fad-6db4-59dd-b3e6-44cc4246c92e-attr-7-type" class="er entityLabel">String</text><rect height="22" width="91.87236022949219" y="156" x="54.095550537109375" class="er attributeBoxOdd"/><text style="dominant-baseline: middle; font-size: 10.2px;" transform="translate(59.095550537109375,167)" y="0" x="0" id="text-entity-organizations-258d3fad-6db4-59dd-b3e6-44cc4246c92e-attr-7-name" class="er entityLabel">address</text><rect height="22" width="24.015625" y="156" x="145.96791076660156" class="er attributeBoxOdd"/><text style="dominant-baseline: middle; font-size: 10.2px;" transform="translate(150.96791076660156,167)" y="0" x="0" id="text-entity-organizations-258d3fad-6db4-59dd-b3e6-44cc4246c92e-attr-7-comment" class="er entityLabel"/><rect height="22" width="54.095550537109375" y="178" x="0" class="er attributeBoxEven"/><text style="dominant-baseline: middle; font-size: 10.2px;" transform="translate(5,189)" y="0" x="0" id="text-entity-organizations-258d3fad-6db4-59dd-b3e6-44cc4246c92e-attr-8-type" class="er entityLabel">String</text><rect height="22" width="91.87236022949219" y="178" x="54.095550537109375" class="er attributeBoxEven"/><text style="dominant-baseline: middle; font-size: 10.2px;" transform="translate(59.095550537109375,189)" y="0" x="0" id="text-entity-organizations-258d3fad-6db4-59dd-b3e6-44cc4246c92e-attr-8-name" class="er entityLabel">postalCode</text><rect height="22" width="24.015625" y="178" x="145.96791076660156" class="er attributeBoxEven"/><text style="dominant-baseline: middle; font-size: 10.2px;" transform="translate(150.96791076660156,189)" y="0" x="0" id="text-entity-organizations-258d3fad-6db4-59dd-b3e6-44cc4246c92e-attr-8-comment" class="er entityLabel"/><rect height="22" width="54.095550537109375" y="200" x="0" class="er attributeBoxOdd"/><text style="dominant-baseline: middle; font-size: 10.2px;" transform="translate(5,211)" y="0" x="0" id="text-entity-organizations-258d3fad-6db4-59dd-b3e6-44cc4246c92e-attr-9-type" class="er entityLabel">DateTime</text><rect height="22" width="91.87236022949219" y="200" x="54.095550537109375" class="er attributeBoxOdd"/><text style="dominant-baseline: middle; font-size: 10.2px;" transform="translate(59.095550537109375,211)" y="0" x="0" id="text-entity-organizations-258d3fad-6db4-59dd-b3e6-44cc4246c92e-attr-9-name" class="er entityLabel">created_at</text><rect height="22" width="24.015625" y="200" x="145.96791076660156" class="er attributeBoxOdd"/><text style="dominant-baseline: middle; font-size: 10.2px;" transform="translate(150.96791076660156,211)" y="0" x="0" id="text-entity-organizations-258d3fad-6db4-59dd-b3e6-44cc4246c92e-attr-9-comment" class="er entityLabel"/></g><rect height="14" width="53.353515625" y="199.78567504882812" x="202.61744689941406" class="er relationshipLabelBox"/><text style="text-anchor: middle; dominant-baseline: middle; font-size: 12px;" y="206.78567504882812" x="229.29420471191406" id="rel1" class="er relationshipLabel">enum:age</text><rect height="14" width="107.55078125" y="229.46861267089844" x="295.11761474609375" class="er relationshipLabelBox"/><text style="text-anchor: middle; dominant-baseline: middle; font-size: 12px;" y="236.46861267089844" x="348.89300537109375" id="rel2" class="er relationshipLabel">enum:temperament</text><rect height="14" width="55" y="274" x="523.8972778320312" class="er relationshipLabelBox"/><text style="text-anchor: middle; dominant-baseline: middle; font-size: 12px;" y="281" x="551.3972778320312" id="rel3" class="er relationshipLabel">enum:size</text><rect height="14" width="67.029296875" y="225.86888122558594" x="665.495849609375" class="er relationshipLabelBox"/><text style="text-anchor: middle; dominant-baseline: middle; font-size: 12px;" y="232.86888122558594" x="699.010498046875" id="rel4" class="er relationshipLabel">organization</text><rect height="14" width="22.431640625" y="201.28077697753906" x="742.14794921875" class="er relationshipLabelBox"/><text style="text-anchor: middle; dominant-baseline: middle; font-size: 12px;" y="208.28077697753906" x="753.36376953125" id="rel5" class="er relationshipLabel">Pets</text></svg>